<svg width="24" height="24" viewBox="0 0 24 24" fill="none" xmlns="http://www.w3.org/2000/svg">
<g clip-path="url(#clip0_170_14138)">
<mask id="mask0_170_14138" style="mask-type:luminance" maskUnits="userSpaceOnUse" x="0" y="0" width="24" height="24">
<path d="M0 3.8147e-06H24V24H0V3.8147e-06Z" fill="white"/>
</mask>
<g mask="url(#mask0_170_14138)">
<path d="M10.6151 16.7746C10.4802 17.5394 10.9909 18.2688 11.7558 18.4037C12.5206 18.5386 13.25 18.0278 13.3849 17.263C13.5197 16.4981 13.009 15.7688 12.2442 15.6339C11.4793 15.499 10.75 16.0097 10.6151 16.7746Z" stroke="#803806" stroke-width="1.40625" stroke-miterlimit="10" stroke-linecap="round" stroke-linejoin="round"/>
<path d="M18.2279 7.61179C17.4981 7.87738 17.1218 8.68438 17.3874 9.41418C17.6531 10.144 18.46 10.5203 19.1898 10.2546C19.9197 9.98905 20.2959 9.18205 20.0303 8.45225C19.7647 7.72241 18.9577 7.34615 18.2279 7.61179Z" stroke="#803806" stroke-width="1.40625" stroke-miterlimit="10" stroke-linecap="round" stroke-linejoin="round"/>
<path d="M18.5546 13.8568C17.9597 13.3576 17.0726 13.4352 16.5734 14.0301C16.0742 14.6251 16.1518 15.5121 16.7468 16.0113C17.3417 16.5105 18.2287 16.4329 18.7279 15.838C19.2272 15.243 19.1495 14.356 18.5546 13.8568Z" stroke="#803806" stroke-width="1.40625" stroke-miterlimit="10" stroke-linecap="round" stroke-linejoin="round"/>
<path d="M9.55046 9.05033C9.29588 8.47062 9.34111 7.77594 9.73088 7.2193C10.3298 6.36387 10.6629 6.54195 11.2192 5.83226C11.7687 5.13115 12.1506 3.76353 12.1506 3.76353C12.1506 3.76353 14.4041 7.08312 12.8027 9.3702C12.4129 9.9268 11.7756 10.2069 11.1437 10.166" stroke="#803806" stroke-width="1.40625" stroke-miterlimit="10" stroke-linecap="round" stroke-linejoin="round"/>
<path d="M7.3672 11.4666C7.00743 11.1483 6.57698 10.9058 6.09792 10.7722C5.51535 10.6097 4.93392 10.6132 4.39799 10.7505C3.49743 10.9812 2.64548 10.2635 2.80565 9.34777L2.82679 9.22707C3.81576 3.6181 9.16443 -0.127021 14.7734 0.861994C20.3822 1.85096 24.1274 7.19963 23.1384 12.8086C22.1494 18.4175 16.8008 22.1626 11.1919 21.1736C11.0976 21.157 11.0038 21.1392 10.9106 21.1201C8.29724 20.5853 7.04188 17.7414 8.17631 15.3271C8.23499 15.2023 8.28548 15.0724 8.32856 14.9385" stroke="#803806" stroke-width="1.40625" stroke-miterlimit="10" stroke-linecap="round" stroke-linejoin="round"/>
<path d="M9.55565 9.04633L11.1459 10.1599C10.8501 11.0493 10.107 12.4029 8.65452 14.4773C5.83326 18.5065 1.41726 23.7156 0.781071 23.2701C0.144836 22.8246 3.5294 16.8933 6.35071 12.8641C7.80318 10.7897 8.82093 9.62852 9.55565 9.04633Z" stroke="#803806" stroke-width="1.40625" stroke-miterlimit="10" stroke-linecap="round" stroke-linejoin="round"/>
</g>
</g>
<defs>
<clipPath id="clip0_170_14138">
<rect width="24" height="24" fill="white"/>
</clipPath>
</defs>
</svg>
