<svg width="15" height="16" viewBox="0 0 15 16" fill="none" xmlns="http://www.w3.org/2000/svg">
<g clip-path="url(#clip0_170_14173)">
<path d="M11.6588 10.1706C11.2558 10.1706 10.9301 10.4963 10.9301 10.8992V13.188C10.9301 13.5903 10.6037 13.9167 10.2015 13.9167H2.18601C1.78377 13.9167 1.45735 13.5902 1.45735 13.188V3.71527C1.45735 3.31303 1.7838 2.98662 2.18601 2.98662H6.41959C6.82254 2.98662 7.14825 2.6609 7.14825 2.25796C7.14825 1.85501 6.82254 1.5293 6.41959 1.5293H2.18601C0.980783 1.52924 0 2.51005 0 3.71527V13.188C0 14.3932 0.980783 15.374 2.18601 15.374H10.2014C11.4066 15.374 12.3874 14.394 12.3874 13.188V10.8993C12.3874 10.4963 12.0617 10.1706 11.6588 10.1706Z" fill="white"/>
<path d="M14.185 1.43694C13.656 0.907936 12.9652 0.641221 12.2693 0.626661C11.537 0.610636 10.8003 0.875856 10.2465 1.43038L5.31336 6.3635C4.59343 7.08636 4.19702 8.04529 4.19702 9.06395V10.6962C4.19702 11.0991 4.52274 11.4248 4.92568 11.4248H6.5579C7.57659 11.4248 8.53552 11.0284 9.25908 10.3078L14.1856 5.3812C15.2714 4.2948 15.2714 2.52413 14.185 1.43694ZM8.22952 9.27676C7.78284 9.72198 7.18824 9.96754 6.55796 9.96754H5.65437V9.06398C5.65437 8.43367 5.89993 7.83907 6.34442 7.39312L9.59649 4.14105L11.4808 6.02539L8.22952 9.27676ZM13.1546 4.35163L12.5112 4.99507L10.6268 3.11073L11.2702 2.46732C11.7905 1.94705 12.6358 1.94851 13.1546 2.46732C13.6734 2.98683 13.6734 3.83209 13.1546 4.35163Z" fill="white"/>
</g>
<defs>
<clipPath id="clip0_170_14173">
<rect width="15" height="15" fill="white" transform="translate(0 0.5)"/>
</clipPath>
</defs>
</svg>
