<svg width="24" height="24" viewBox="0 0 24 24" fill="none" xmlns="http://www.w3.org/2000/svg">
<g clip-path="url(#clip0_170_18813)">
<path d="M3.62657 24H17.7065C17.9421 24 18.1688 23.9066 18.3332 23.7378L23.2932 18.7778C23.462 18.6089 23.5554 18.3867 23.5554 18.1512V4.95998C23.5554 3.20442 22.1287 1.77774 20.3732 1.77774H19.111V0.888872C19.111 0.399978 18.711 0 18.2221 0C17.7332 0 17.3332 0.399978 17.3332 0.888872V1.77774H6.66659V0.888872C6.66659 0.399978 6.26654 0 5.77765 0C5.28875 0 4.88877 0.399978 4.88877 0.888872V1.77774H3.62657C1.87101 1.77774 0.444336 3.20442 0.444336 4.95998V20.8178C0.444336 22.5733 1.87101 24 3.62657 24ZM17.7776 21.7822V18.9244C17.7776 18.7822 17.8932 18.6666 18.0354 18.6666H20.8932L17.7776 21.7822ZM2.22216 4.95998C2.22216 4.18667 2.85326 3.55556 3.62657 3.55556H4.88877V4.44444C4.88877 4.93333 5.28875 5.33331 5.77765 5.33331C6.26654 5.33331 6.66652 4.93333 6.66652 4.44444V3.55556H17.3332V4.44444C17.3332 4.93333 17.7332 5.33331 18.2221 5.33331C18.711 5.33331 19.111 4.93333 19.111 4.44444V3.55556H20.3732C21.1465 3.55556 21.7776 4.18667 21.7776 4.95998V16.8889H18.0353C16.9109 16.8889 15.9998 17.8 15.9998 18.9245V22.2223H3.62657C2.85326 22.2223 2.22216 21.5912 2.22216 20.8178V4.95998Z" fill="#803806"/>
<path d="M6.88892 10.2222C7.50256 10.2222 8.00001 9.72473 8.00001 9.11109C8.00001 8.49745 7.50256 8 6.88892 8C6.27528 8 5.77783 8.49745 5.77783 9.11109C5.77783 9.72473 6.27528 10.2222 6.88892 10.2222Z" fill="#803806"/>
<path d="M11.7776 10.2222C12.3912 10.2222 12.8887 9.72473 12.8887 9.11109C12.8887 8.49745 12.3912 8 11.7776 8C11.164 8 10.6665 8.49745 10.6665 9.11109C10.6665 9.72473 11.164 10.2222 11.7776 10.2222Z" fill="#803806"/>
<path d="M16.6665 10.2222C17.2801 10.2222 17.7776 9.72473 17.7776 9.11109C17.7776 8.49745 17.2801 8 16.6665 8C16.0529 8 15.5554 8.49745 15.5554 9.11109C15.5554 9.72473 16.0529 10.2222 16.6665 10.2222Z" fill="#803806"/>
<path d="M6.88892 14.6665C7.50256 14.6665 8.00001 14.1691 8.00001 13.5554C8.00001 12.9418 7.50256 12.4443 6.88892 12.4443C6.27528 12.4443 5.77783 12.9418 5.77783 13.5554C5.77783 14.1691 6.27528 14.6665 6.88892 14.6665Z" fill="#803806"/>
<path d="M11.7776 14.6665C12.3912 14.6665 12.8887 14.1691 12.8887 13.5554C12.8887 12.9418 12.3912 12.4443 11.7776 12.4443C11.164 12.4443 10.6665 12.9418 10.6665 13.5554C10.6665 14.1691 11.164 14.6665 11.7776 14.6665Z" fill="#803806"/>
<path d="M16.6665 14.6665C17.2801 14.6665 17.7776 14.1691 17.7776 13.5554C17.7776 12.9418 17.2801 12.4443 16.6665 12.4443C16.0529 12.4443 15.5554 12.9418 15.5554 13.5554C15.5554 14.1691 16.0529 14.6665 16.6665 14.6665Z" fill="#803806"/>
<path d="M6.88892 19.1109C7.50256 19.1109 8.00001 18.6134 8.00001 17.9998C8.00001 17.3861 7.50256 16.8887 6.88892 16.8887C6.27528 16.8887 5.77783 17.3861 5.77783 17.9998C5.77783 18.6134 6.27528 19.1109 6.88892 19.1109Z" fill="#803806"/>
<path d="M11.7776 19.1109C12.3912 19.1109 12.8887 18.6134 12.8887 17.9998C12.8887 17.3861 12.3912 16.8887 11.7776 16.8887C11.164 16.8887 10.6665 17.3861 10.6665 17.9998C10.6665 18.6134 11.164 19.1109 11.7776 19.1109Z" fill="#803806"/>
</g>
<defs>
<clipPath id="clip0_170_18813">
<rect width="24" height="24" fill="white"/>
</clipPath>
</defs>
</svg>
