<svg width="22" height="24" viewBox="0 0 22 24" fill="none" xmlns="http://www.w3.org/2000/svg">
<path d="M1.625 16.875H4.8255L1.58728 23.3209C1.43091 23.632 1.65741 24 2.00604 24H4.14178C4.31903 24 4.48108 23.9 4.56073 23.7416L8.01062 16.875H9.59375V23.5312C9.59375 23.7902 9.80359 24 10.0625 24H11.9375C12.1964 24 12.4062 23.7902 12.4062 23.5312V16.875H13.9894L17.4395 23.7416C17.5189 23.9 17.681 24 17.8582 24H19.9943C20.3426 24 20.5698 23.6323 20.4133 23.3209L17.1747 16.875H20.375C21.1519 16.875 21.7812 16.2457 21.7812 15.4688C21.7812 14.8577 21.3894 14.3366 20.8438 14.1431V3.28125C20.8438 2.5058 20.213 1.875 19.4375 1.875H13.8125V1.40625C13.8125 0.630798 13.1817 0 12.4062 0H9.59375C8.8183 0 8.1875 0.630798 8.1875 1.40625V1.875H2.5625C1.78705 1.875 1.15625 2.5058 1.15625 3.28125V14.1423C0.622314 14.3307 0.21875 14.8438 0.21875 15.4688C0.21875 16.2442 0.849548 16.875 1.625 16.875ZM3.85266 23.0625H2.76611L5.87451 16.875H6.96143L3.85266 23.0625ZM11.4688 23.0625H10.5312V16.875H11.4688V23.0625ZM19.2343 23.0625H18.1473L15.0386 16.875H16.1255L19.2343 23.0625ZM20.375 15.9375C19.6125 15.9375 2.18347 15.9375 1.625 15.9375C1.36646 15.9375 1.15625 15.7273 1.15625 15.4688C1.15625 15.21 1.36609 15 1.62482 15H1.62537H20.375C20.6335 15 20.8438 15.2102 20.8438 15.4688C20.8438 15.7277 20.6337 15.9375 20.375 15.9375ZM14.0068 14.0625L12.6005 12.6562L15.2188 10.0378L19.2432 14.0625H14.0068ZM11.6059 12.9877H11.6061V12.9879L12.6807 14.0625H2.75677L7.71875 9.10034L11.6059 12.9877ZM9.125 1.40625C9.125 1.14771 9.33521 0.9375 9.59375 0.9375H12.4062C12.6648 0.9375 12.875 1.14771 12.875 1.40625V2.8125H9.125V1.40625ZM2.5625 2.8125H8.1875V3.28125C8.1875 3.54016 8.39734 3.75 8.65625 3.75H13.3438C13.6027 3.75 13.8125 3.54016 13.8125 3.28125V2.8125H19.4375C19.696 2.8125 19.9062 3.02271 19.9062 3.28125V13.3995L15.5502 9.04358C15.3671 8.86047 15.0704 8.86047 14.8873 9.04358L11.9375 11.9932L8.05017 8.10608C7.86707 7.92297 7.57043 7.92297 7.38733 8.10608L2.09375 13.3995V3.28125C2.09375 3.02271 2.30396 2.8125 2.5625 2.8125Z" fill="#803806"/>
</svg>
