<svg width="15" height="14" viewBox="0 0 15 14" fill="none" xmlns="http://www.w3.org/2000/svg">
<path d="M12.6562 0.527344H2.34375C1.05137 0.527344 0 1.57871 0 2.87109V11.0742C0 12.3666 1.05137 13.418 2.34375 13.418H10.3418C10.6654 13.418 10.9277 13.1557 10.9277 12.832C10.9277 12.5084 10.6654 12.2461 10.3418 12.2461H8.18367L6.83647 10.4984L11.1057 5.06824L13.9796 8.24467C14.1422 8.42445 14.3986 8.48545 14.6247 8.39836C14.8508 8.31116 15 8.09383 15 7.85156V2.87109C15 1.57871 13.9486 0.527344 12.6562 0.527344ZM13.8281 6.33064L11.5088 3.76705C11.3929 3.63899 11.2263 3.56827 11.054 3.57456C10.8815 3.58063 10.7204 3.66234 10.6136 3.79807L6.09844 9.54094L4.56562 7.55241C4.45473 7.40856 4.28329 7.32422 4.10156 7.32422C4.10145 7.32422 4.10133 7.32422 4.10122 7.32422C3.91949 7.32433 3.74794 7.40879 3.63716 7.55287L2.34764 9.2292C2.15034 9.48578 2.1983 9.85359 2.45476 10.0509C2.71133 10.2483 3.07915 10.2002 3.27656 9.94377L4.10202 8.87054L6.70406 12.2461H2.34375C1.69762 12.2461 1.17188 11.7204 1.17188 11.0742V2.87109C1.17188 2.22496 1.69762 1.69922 2.34375 1.69922H12.6562C13.3024 1.69922 13.8281 2.22496 13.8281 2.87109V6.33064Z" fill="white"/>
</svg>
