<svg width="15" height="16" viewBox="0 0 15 16" fill="none" xmlns="http://www.w3.org/2000/svg">
<g clip-path="url(#clip0_170_18390)">
<path d="M12.6562 1.02734H2.34375C1.05137 1.02734 0 2.07871 0 3.37109V11.5742C0 12.8666 1.05137 13.918 2.34375 13.918H10.3418C10.6654 13.918 10.9277 13.6557 10.9277 13.332C10.9277 13.0084 10.6654 12.7461 10.3418 12.7461H8.18367L6.83647 10.9984L11.1057 5.56824L13.9796 8.74467C14.1422 8.92445 14.3986 8.98545 14.6247 8.89836C14.8508 8.81116 15 8.59383 15 8.35156V3.37109C15 2.07871 13.9486 1.02734 12.6562 1.02734ZM13.8281 6.83064L11.5088 4.26705C11.3929 4.13899 11.2263 4.06827 11.054 4.07456C10.8815 4.08063 10.7204 4.16234 10.6136 4.29807L6.09844 10.0409L4.56562 8.05241C4.45473 7.90856 4.28329 7.82422 4.10156 7.82422C4.10145 7.82422 4.10133 7.82422 4.10122 7.82422C3.91949 7.82433 3.74794 7.90879 3.63716 8.05287L2.34764 9.7292C2.15034 9.98578 2.1983 10.3536 2.45476 10.5509C2.71133 10.7483 3.07915 10.7002 3.27656 10.4438L4.10202 9.37054L6.70406 12.7461H2.34375C1.69762 12.7461 1.17188 12.2204 1.17188 11.5742V3.37109C1.17188 2.72496 1.69762 2.19922 2.34375 2.19922H12.6562C13.3024 2.19922 13.8281 2.72496 13.8281 3.37109V6.83064Z" fill="white"/>
<path d="M4.10156 3.13672C3.13225 3.13672 2.34375 3.92522 2.34375 4.89453C2.34375 5.86385 3.13225 6.65234 4.10156 6.65234C5.07088 6.65234 5.85938 5.86385 5.85938 4.89453C5.85938 3.92522 5.07088 3.13672 4.10156 3.13672ZM4.10156 5.48047C3.7785 5.48047 3.51562 5.2176 3.51562 4.89453C3.51562 4.57146 3.7785 4.30859 4.10156 4.30859C4.42463 4.30859 4.6875 4.57146 4.6875 4.89453C4.6875 5.2176 4.42463 5.48047 4.10156 5.48047Z" fill="white"/>
<path d="M13.7249 9.90258C13.7232 9.90086 13.7215 9.89903 13.7198 9.89732C13.4428 9.61842 13.0744 9.46484 12.6824 9.46484C12.2914 9.46484 11.9241 9.61751 11.6475 9.8948L10.5162 11.0106C10.2859 11.2378 10.2833 11.6088 10.5106 11.8391C10.7378 12.0695 11.1088 12.0722 11.3392 11.8449L12.0964 11.098V14.3867C12.0964 14.7104 12.3587 14.9727 12.6824 14.9727C13.006 14.9727 13.2683 14.7104 13.2683 14.3867V11.1159L13.9931 11.8646C14.108 11.9833 14.261 12.043 14.4141 12.043C14.5609 12.043 14.7079 11.9882 14.8216 11.8781C15.0542 11.653 15.0601 11.2821 14.835 11.0495L13.7249 9.90258Z" fill="white"/>
</g>
<defs>
<clipPath id="clip0_170_18390">
<rect width="15" height="15" fill="white" transform="translate(0 0.5)"/>
</clipPath>
</defs>
</svg>
