<svg width="17" height="17" viewBox="0 0 17 17" fill="none" xmlns="http://www.w3.org/2000/svg">
<g clip-path="url(#clip0_397_2031)">
<path d="M15.8058 8.80411L8.60062 0.798306C8.2972 0.460461 7.71438 0.460461 7.41096 0.798306L0.205736 8.80411C0.102026 8.91907 0.0339514 9.06168 0.00978954 9.21461C-0.0143723 9.36755 0.00641965 9.5242 0.0696375 9.66553C0.19773 9.95454 0.484338 10.1403 0.800567 10.1403H2.40173V15.7443C2.40173 15.9567 2.48607 16.1603 2.63621 16.3104C2.78635 16.4606 2.98998 16.5449 3.20231 16.5449H5.60405C5.81638 16.5449 6.02001 16.4606 6.17015 16.3104C6.32028 16.1603 6.40463 15.9567 6.40463 15.7443V12.542H9.60695V15.7443C9.60695 15.9567 9.6913 16.1603 9.84144 16.3104C9.99157 16.4606 10.1952 16.5449 10.4075 16.5449H12.8093C13.0216 16.5449 13.2252 16.4606 13.3754 16.3104C13.5255 16.1603 13.6099 15.9567 13.6099 15.7443V10.1403H15.211C15.3661 10.1409 15.5179 10.0965 15.6482 10.0123C15.7784 9.92813 15.8813 9.80789 15.9443 9.66625C16.0074 9.5246 16.0279 9.36767 16.0033 9.21459C15.9787 9.0615 15.9101 8.91888 15.8058 8.80411Z" fill="#883B0A"/>
</g>
<defs>
<clipPath id="clip0_397_2031">
<rect width="16.0134" height="16" fill="white" transform="translate(0 0.544922)"/>
</clipPath>
</defs>
</svg>
