<svg width="24" height="24" viewBox="0 0 24 24" fill="none" xmlns="http://www.w3.org/2000/svg">
<path d="M5.4375 6.5625C5.69623 6.5625 5.90625 6.35248 5.90625 6.09375C5.90625 5.83502 5.69623 5.625 5.4375 5.625C5.17877 5.625 4.96875 5.83502 4.96875 6.09375C4.96875 6.35248 5.17877 6.5625 5.4375 6.5625Z" fill="#803806"/>
<path d="M2.625 16.875H5.8255L2.58728 23.3209C2.43091 23.632 2.65741 24 3.00604 24H5.14178C5.31903 24 5.48108 23.9 5.56073 23.7416L9.01062 16.875H10.5938V23.5312C10.5938 23.7902 10.8036 24 11.0625 24H12.9375C13.1964 24 13.4062 23.7902 13.4062 23.5312V16.875H14.9894L18.4395 23.7416C18.5189 23.9 18.681 24 18.8582 24H20.9943C21.3426 24 21.5698 23.6323 21.4133 23.3209L18.1747 16.875H21.375C22.1519 16.875 22.7812 16.2457 22.7812 15.4688C22.7812 14.8577 22.3894 14.3366 21.8438 14.1431V3.28125C21.8438 2.5058 21.213 1.875 20.4375 1.875H14.8125V1.40625C14.8125 0.630798 14.1817 0 13.4062 0H10.5938C9.8183 0 9.1875 0.630798 9.1875 1.40625V1.875H3.5625C2.78705 1.875 2.15625 2.5058 2.15625 3.28125V14.1423C1.62231 14.3307 1.21875 14.8438 1.21875 15.4688C1.21875 16.2442 1.84955 16.875 2.625 16.875ZM4.85266 23.0625H3.76611L6.87451 16.875H7.96143L4.85266 23.0625ZM12.4688 23.0625H11.5312V16.875H12.4688V23.0625ZM20.2343 23.0625H19.1473L16.0386 16.875H17.1255L20.2343 23.0625ZM21.375 15.9375C20.6125 15.9375 3.18347 15.9375 2.625 15.9375C2.36646 15.9375 2.15625 15.7273 2.15625 15.4688C2.15625 15.21 2.36609 15 2.62482 15H2.62537H21.375C21.6335 15 21.8438 15.2102 21.8438 15.4688C21.8438 15.7277 21.6337 15.9375 21.375 15.9375ZM15.0068 14.0625L13.6005 12.6562L16.2188 10.0378L20.2432 14.0625H15.0068ZM12.6059 12.9877H12.6061V12.9879L13.6807 14.0625H3.75677L8.71875 9.10034L12.6059 12.9877ZM10.125 1.40625C10.125 1.14771 10.3352 0.9375 10.5938 0.9375H13.4062C13.6648 0.9375 13.875 1.14771 13.875 1.40625V2.8125H10.125V1.40625ZM3.5625 2.8125H9.1875V3.28125C9.1875 3.54016 9.39734 3.75 9.65625 3.75H14.3438C14.6027 3.75 14.8125 3.54016 14.8125 3.28125V2.8125H20.4375C20.696 2.8125 20.9062 3.02271 20.9062 3.28125V13.3995L16.5502 9.04358C16.3671 8.86047 16.0704 8.86047 15.8873 9.04358L12.9375 11.9932L9.05017 8.10608C8.86707 7.92297 8.57043 7.92297 8.38733 8.10608L3.09375 13.3995V3.28125C3.09375 3.02271 3.30396 2.8125 3.5625 2.8125Z" fill="#803806"/>
<path d="M12.9375 9.375C13.713 9.375 14.3438 8.7442 14.3438 7.96875C14.3438 7.1933 13.713 6.5625 12.9375 6.5625C12.162 6.5625 11.5312 7.1933 11.5312 7.96875C11.5312 8.7442 12.162 9.375 12.9375 9.375ZM12.9375 7.5C13.196 7.5 13.4062 7.71021 13.4062 7.96875C13.4062 8.22729 13.196 8.4375 12.9375 8.4375C12.679 8.4375 12.4688 8.22729 12.4688 7.96875C12.4688 7.71021 12.679 7.5 12.9375 7.5Z" fill="#803806"/>
<path d="M16.6875 6.5625H18.5625C18.8214 6.5625 19.0312 6.35266 19.0312 6.09375C19.0312 5.83484 18.8214 5.625 18.5625 5.625H16.6875C16.4286 5.625 16.2188 5.83484 16.2188 6.09375C16.2188 6.35266 16.4286 6.5625 16.6875 6.5625Z" fill="#803806"/>
<path d="M7.3125 6.5625H10.125C10.3839 6.5625 10.5938 6.35266 10.5938 6.09375C10.5938 5.83484 10.3839 5.625 10.125 5.625H7.3125C7.05359 5.625 6.84375 5.83484 6.84375 6.09375C6.84375 6.35266 7.05359 6.5625 7.3125 6.5625Z" fill="#803806"/>
</svg>
