<svg width="15" height="16" viewBox="0 0 15 16" fill="none" xmlns="http://www.w3.org/2000/svg">
<g clip-path="url(#clip0_170_17915)">
<path d="M11.6588 10.1706C11.2558 10.1706 10.9301 10.4963 10.9301 10.8992V13.188C10.9301 13.5903 10.6037 13.9167 10.2015 13.9167H2.18601C1.78377 13.9167 1.45735 13.5902 1.45735 13.188V3.71527C1.45735 3.31303 1.7838 2.98662 2.18601 2.98662H6.41959C6.82254 2.98662 7.14825 2.6609 7.14825 2.25796C7.14825 1.85501 6.82254 1.5293 6.41959 1.5293H2.18601C0.980783 1.52924 0 2.51005 0 3.71527V13.188C0 14.3932 0.980783 15.374 2.18601 15.374H10.2014C11.4066 15.374 12.3874 14.394 12.3874 13.188V10.8993C12.3874 10.4963 12.0617 10.1706 11.6588 10.1706Z" fill="white"/>
<path d="M14.185 1.4367C13.656 0.907691 12.9652 0.640977 12.2693 0.626417C11.537 0.610392 10.8003 0.875612 10.2465 1.43013L5.31336 6.36326C4.59343 7.08612 4.19702 8.04505 4.19702 9.06371V10.6959C4.19702 11.0989 4.52274 11.4246 4.92568 11.4246H6.5579C7.57659 11.4246 8.53552 11.0282 9.25908 10.3075L14.1856 5.38095C15.2714 4.29456 15.2714 2.52388 14.185 1.4367ZM8.22952 9.27652C7.78284 9.72174 7.18824 9.9673 6.55796 9.9673H5.65437V9.06374C5.65437 8.43343 5.89993 7.83883 6.34442 7.39288L9.59649 4.14081L11.4808 6.02515L8.22952 9.27652ZM13.1546 4.35139L12.5112 4.99483L10.6268 3.11048L11.2702 2.46708C11.7905 1.9468 12.6358 1.94827 13.1546 2.46708C13.6734 2.98659 13.6734 3.83185 13.1546 4.35139Z" fill="white"/>
</g>
<defs>
<clipPath id="clip0_170_17915">
<rect width="15" height="15" fill="white" transform="translate(0 0.5)"/>
</clipPath>
</defs>
</svg>
